<svg width="26" height="47" viewBox="0 0 26 47" fill="none" xmlns="http://www.w3.org/2000/svg">
<ellipse cx="1.5" cy="4" rx="1.5" ry="4" transform="matrix(-0.686528 0.727103 0.727103 0.686528 7.18808 0)" fill="url(#paint0_linear_26_382)"/>
<ellipse cx="1.5" cy="4" rx="1.5" ry="4" transform="matrix(-0.0480456 -0.998845 -0.998845 0.0480456 14.5788 42.3568)" fill="url(#paint1_linear_26_382)"/>
<ellipse cx="1.5" cy="4" rx="1.5" ry="4" transform="matrix(-0.998845 0.0480456 0.0480456 0.998845 6.79978 32.4263)" fill="url(#paint2_linear_26_382)"/>
<ellipse cx="1.5" cy="4" rx="1.5" ry="4" transform="matrix(-0.327175 -0.944964 -0.944964 0.327175 20.0783 35.2671)" fill="url(#paint3_linear_26_382)"/>
<ellipse cx="1.5" cy="4" rx="1.5" ry="4" transform="matrix(-0.944964 0.327175 0.327175 0.944964 9.81919 27.9268)" fill="url(#paint4_linear_26_382)"/>
<ellipse cx="1.5" cy="4" rx="1.5" ry="4" transform="matrix(-0.62185 -0.783136 -0.783136 0.62185 24.3343 27.2866)" fill="url(#paint5_linear_26_382)"/>
<ellipse cx="1.5" cy="4" rx="1.5" ry="4" transform="matrix(-0.783136 0.62185 0.62185 0.783136 12.2224 23.761)" fill="url(#paint6_linear_26_382)"/>
<ellipse cx="1.5" cy="4" rx="1.5" ry="4" transform="matrix(-0.822519 -0.568738 -0.568738 0.822519 24.9898 18.0869)" fill="url(#paint7_linear_26_382)"/>
<ellipse cx="1.5" cy="4" rx="1.5" ry="4" transform="matrix(-0.568738 0.822519 0.822519 0.568738 12.3761 18.2314)" fill="url(#paint8_linear_26_382)"/>
<ellipse cx="1.5" cy="4" rx="1.5" ry="4" transform="matrix(-0.952258 -0.305294 -0.305294 0.952258 22.9449 9.09338)" fill="url(#paint9_linear_26_382)"/>
<ellipse cx="1.5" cy="4" rx="1.5" ry="4" transform="matrix(-0.305294 0.952258 0.952258 0.305294 10.917 12.8958)" fill="url(#paint10_linear_26_382)"/>
<ellipse cx="1.5" cy="4" rx="1.5" ry="4" transform="matrix(-0.990691 -0.136133 -0.136133 0.990691 18.3283 2.3728)" fill="url(#paint11_linear_26_382)"/>
<ellipse cx="1.5" cy="4" rx="1.5" ry="4" transform="matrix(-0.136133 0.990691 0.990691 0.136133 7.1384 8.19666)" fill="url(#paint12_linear_26_382)"/>
<defs>
<linearGradient id="paint0_linear_26_382" x1="1.5" y1="0" x2="1.5" y2="8" gradientUnits="userSpaceOnUse">
<stop stop-color="#A7A7A7"/>
<stop offset="1" stop-color="#737373"/>
</linearGradient>
<linearGradient id="paint1_linear_26_382" x1="1.5" y1="0" x2="1.5" y2="8" gradientUnits="userSpaceOnUse">
<stop stop-color="#A7A7A7"/>
<stop offset="1" stop-color="#737373"/>
</linearGradient>
<linearGradient id="paint2_linear_26_382" x1="1.5" y1="0" x2="1.5" y2="8" gradientUnits="userSpaceOnUse">
<stop stop-color="#A7A7A7"/>
<stop offset="1" stop-color="#737373"/>
</linearGradient>
<linearGradient id="paint3_linear_26_382" x1="1.5" y1="0" x2="1.5" y2="8" gradientUnits="userSpaceOnUse">
<stop stop-color="#A7A7A7"/>
<stop offset="1" stop-color="#737373"/>
</linearGradient>
<linearGradient id="paint4_linear_26_382" x1="1.5" y1="0" x2="1.5" y2="8" gradientUnits="userSpaceOnUse">
<stop stop-color="#A7A7A7"/>
<stop offset="1" stop-color="#737373"/>
</linearGradient>
<linearGradient id="paint5_linear_26_382" x1="1.5" y1="0" x2="1.5" y2="8" gradientUnits="userSpaceOnUse">
<stop stop-color="#A7A7A7"/>
<stop offset="1" stop-color="#737373"/>
</linearGradient>
<linearGradient id="paint6_linear_26_382" x1="1.5" y1="0" x2="1.5" y2="8" gradientUnits="userSpaceOnUse">
<stop stop-color="#A7A7A7"/>
<stop offset="1" stop-color="#737373"/>
</linearGradient>
<linearGradient id="paint7_linear_26_382" x1="1.5" y1="0" x2="1.5" y2="8" gradientUnits="userSpaceOnUse">
<stop stop-color="#A7A7A7"/>
<stop offset="1" stop-color="#737373"/>
</linearGradient>
<linearGradient id="paint8_linear_26_382" x1="1.5" y1="0" x2="1.5" y2="8" gradientUnits="userSpaceOnUse">
<stop stop-color="#A7A7A7"/>
<stop offset="1" stop-color="#737373"/>
</linearGradient>
<linearGradient id="paint9_linear_26_382" x1="1.5" y1="0" x2="1.5" y2="8" gradientUnits="userSpaceOnUse">
<stop stop-color="#A7A7A7"/>
<stop offset="1" stop-color="#737373"/>
</linearGradient>
<linearGradient id="paint10_linear_26_382" x1="1.5" y1="0" x2="1.5" y2="8" gradientUnits="userSpaceOnUse">
<stop stop-color="#A7A7A7"/>
<stop offset="1" stop-color="#737373"/>
</linearGradient>
<linearGradient id="paint11_linear_26_382" x1="1.5" y1="0" x2="1.5" y2="8" gradientUnits="userSpaceOnUse">
<stop stop-color="#A7A7A7"/>
<stop offset="1" stop-color="#737373"/>
</linearGradient>
<linearGradient id="paint12_linear_26_382" x1="1.5" y1="0" x2="1.5" y2="8" gradientUnits="userSpaceOnUse">
<stop stop-color="#A7A7A7"/>
<stop offset="1" stop-color="#737373"/>
</linearGradient>
</defs>
</svg>
