<svg width="26" height="47" viewBox="0 0 26 47" fill="none" xmlns="http://www.w3.org/2000/svg">
<ellipse cx="16.9383" cy="3.83677" rx="1.5" ry="4" transform="rotate(46.6441 16.9383 3.83677)" fill="url(#paint0_linear_26_361)"/>
<ellipse cx="15.4936" cy="41.0507" rx="1.5" ry="4" transform="rotate(-87.2461 15.4936 41.0507)" fill="url(#paint1_linear_26_361)"/>
<ellipse cx="20.5113" cy="36.4937" rx="1.5" ry="4" transform="rotate(2.75387 20.5113 36.4937)" fill="url(#paint2_linear_26_361)"/>
<ellipse cx="10.1973" cy="35.1583" rx="1.5" ry="4" transform="rotate(-70.9026 10.1973 35.1583)" fill="url(#paint3_linear_26_361)"/>
<ellipse cx="16.2945" cy="32.1974" rx="1.5" ry="4" transform="rotate(19.0974 16.2945 32.1974)" fill="url(#paint4_linear_26_361)"/>
<ellipse cx="5.73598" cy="28.5993" rx="1.5" ry="4" transform="rotate(-51.5486 5.73598 28.5993)" fill="url(#paint5_linear_26_361)"/>
<ellipse cx="12.4699" cy="27.8263" rx="1.5" ry="4" transform="rotate(38.4514 12.4699 27.8263)" fill="url(#paint6_linear_26_361)"/>
<ellipse cx="4.52387" cy="20.5239" rx="1.5" ry="4" transform="rotate(-34.6622 4.52387 20.5239)" fill="url(#paint7_linear_26_361)"/>
<ellipse cx="11.1919" cy="21.7402" rx="1.5" ry="4" transform="rotate(55.3378 11.1919 21.7402)" fill="url(#paint8_linear_26_361)"/>
<ellipse cx="5.70962" cy="12.4445" rx="1.5" ry="4" transform="rotate(-17.7759 5.70962 12.4445)" fill="url(#paint9_linear_26_361)"/>
<ellipse cx="11.7369" cy="15.5453" rx="1.5" ry="4" transform="rotate(72.2241 11.7369 15.5453)" fill="url(#paint10_linear_26_361)"/>
<ellipse cx="9.7072" cy="6.13137" rx="1.5" ry="4" transform="rotate(-7.82413 9.7072 6.13137)" fill="url(#paint11_linear_26_361)"/>
<ellipse cx="15.108" cy="10.2272" rx="1.5" ry="4" transform="rotate(82.1759 15.108 10.2272)" fill="url(#paint12_linear_26_361)"/>
<defs>
<linearGradient id="paint0_linear_26_361" x1="16.9383" y1="-0.163233" x2="16.9383" y2="7.83677" gradientUnits="userSpaceOnUse">
<stop stop-color="#A7A7A7"/>
<stop offset="1" stop-color="#737373"/>
</linearGradient>
<linearGradient id="paint1_linear_26_361" x1="15.4936" y1="37.0507" x2="15.4936" y2="45.0507" gradientUnits="userSpaceOnUse">
<stop stop-color="#A7A7A7"/>
<stop offset="1" stop-color="#737373"/>
</linearGradient>
<linearGradient id="paint2_linear_26_361" x1="20.5113" y1="32.4937" x2="20.5113" y2="40.4937" gradientUnits="userSpaceOnUse">
<stop stop-color="#A7A7A7"/>
<stop offset="1" stop-color="#737373"/>
</linearGradient>
<linearGradient id="paint3_linear_26_361" x1="10.1973" y1="31.1583" x2="10.1973" y2="39.1583" gradientUnits="userSpaceOnUse">
<stop stop-color="#A7A7A7"/>
<stop offset="1" stop-color="#737373"/>
</linearGradient>
<linearGradient id="paint4_linear_26_361" x1="16.2945" y1="28.1974" x2="16.2945" y2="36.1974" gradientUnits="userSpaceOnUse">
<stop stop-color="#A7A7A7"/>
<stop offset="1" stop-color="#737373"/>
</linearGradient>
<linearGradient id="paint5_linear_26_361" x1="5.73598" y1="24.5993" x2="5.73598" y2="32.5993" gradientUnits="userSpaceOnUse">
<stop stop-color="#A7A7A7"/>
<stop offset="1" stop-color="#737373"/>
</linearGradient>
<linearGradient id="paint6_linear_26_361" x1="12.4699" y1="23.8263" x2="12.4699" y2="31.8263" gradientUnits="userSpaceOnUse">
<stop stop-color="#A7A7A7"/>
<stop offset="1" stop-color="#737373"/>
</linearGradient>
<linearGradient id="paint7_linear_26_361" x1="4.52387" y1="16.5239" x2="4.52387" y2="24.5239" gradientUnits="userSpaceOnUse">
<stop stop-color="#A7A7A7"/>
<stop offset="1" stop-color="#737373"/>
</linearGradient>
<linearGradient id="paint8_linear_26_361" x1="11.1919" y1="17.7402" x2="11.1919" y2="25.7402" gradientUnits="userSpaceOnUse">
<stop stop-color="#A7A7A7"/>
<stop offset="1" stop-color="#737373"/>
</linearGradient>
<linearGradient id="paint9_linear_26_361" x1="5.70962" y1="8.44448" x2="5.70962" y2="16.4445" gradientUnits="userSpaceOnUse">
<stop stop-color="#A7A7A7"/>
<stop offset="1" stop-color="#737373"/>
</linearGradient>
<linearGradient id="paint10_linear_26_361" x1="11.7369" y1="11.5453" x2="11.7369" y2="19.5453" gradientUnits="userSpaceOnUse">
<stop stop-color="#A7A7A7"/>
<stop offset="1" stop-color="#737373"/>
</linearGradient>
<linearGradient id="paint11_linear_26_361" x1="9.7072" y1="2.13137" x2="9.7072" y2="10.1314" gradientUnits="userSpaceOnUse">
<stop stop-color="#A7A7A7"/>
<stop offset="1" stop-color="#737373"/>
</linearGradient>
<linearGradient id="paint12_linear_26_361" x1="15.108" y1="6.22722" x2="15.108" y2="14.2272" gradientUnits="userSpaceOnUse">
<stop stop-color="#A7A7A7"/>
<stop offset="1" stop-color="#737373"/>
</linearGradient>
</defs>
</svg>
