<svg width="124" height="22" viewBox="0 0 124 22" fill="none" xmlns="http://www.w3.org/2000/svg">
<g clip-path="url(#clip0_28_8)">
<mask id="mask0_28_8" style="mask-type:luminance" maskUnits="userSpaceOnUse" x="0" y="0" width="124" height="22">
<path d="M123.504 0.423096H0V21.0071H123.504V0.423096Z" fill="white"/>
</mask>
<g mask="url(#mask0_28_8)">
<path d="M48.5051 2.51924C48.5051 2.03227 48.702 1.56524 49.0524 1.22089C49.4028 0.876555 49.8781 0.683105 50.3736 0.683105C50.8692 0.683105 51.3444 0.876555 51.6948 1.22089C52.0452 1.56524 52.242 2.03227 52.242 2.51924C52.224 2.99436 52.0193 3.44409 51.6708 3.77396C51.3223 4.10382 50.8574 4.28812 50.3736 4.28812C49.8898 4.28812 49.4248 4.10382 49.0764 3.77396C48.728 3.44409 48.5232 2.99436 48.5051 2.51924Z" fill="#B9BEC7"/>
<path d="M77.986 14.7644C77.986 13.7453 78.8213 12.9219 79.8505 12.9219C80.3474 12.9219 80.824 13.1159 81.1754 13.4612C81.5267 13.8065 81.7241 14.2748 81.7241 14.7632C81.7241 15.2515 81.5267 15.7198 81.1754 16.0651C80.824 16.4104 80.3474 16.6044 79.8505 16.6044C78.8226 16.6044 77.986 15.7796 77.986 14.7632" fill="#B9BEC7"/>
<path d="M17.8402 13.9679C16.232 13.9679 15.1131 12.7123 15.1131 10.9171C15.1131 9.12313 16.232 7.86877 17.8416 7.86877C19.4589 7.86877 20.5895 9.12313 20.5895 10.9171C20.5895 12.7404 19.4836 13.9679 17.8402 13.9679ZM17.8402 5.18746C14.4364 5.18746 11.9656 7.5977 11.9656 10.9171C11.9656 14.2377 14.4377 16.6467 17.8402 16.6467C21.2584 16.6467 23.7383 14.2377 23.7383 10.9183C23.7383 7.5977 21.2584 5.18746 17.8416 5.18746H17.8402ZM44.8859 11.2047C44.7674 10.9796 44.6177 10.7718 44.4409 10.5872L44.3368 10.4811L44.4461 10.3787C44.6023 10.2163 44.7623 10.0246 44.9158 9.80206L47.9215 5.41378H44.2731L42.0156 8.84694C41.8881 9.03104 41.6305 9.12312 41.244 9.12312H40.73V2.63273C40.73 1.3349 39.9064 1.15845 39.0177 1.15845H37.4953L37.4992 16.4779H40.7313V11.8824H41.0345C41.4028 11.8824 41.6525 11.9247 41.7683 12.1216L43.5509 15.4281C44.0492 16.3257 44.5449 16.4779 45.4791 16.4779H47.9553L46.1103 13.4808L44.8872 11.2047H44.8859ZM60.5751 5.16189C58.9305 5.16189 57.8818 5.88048 57.2936 6.48784L57.0985 6.68219L57.0282 6.41751C56.8565 5.76669 56.2736 5.40994 55.3979 5.40994H53.9496L53.9588 16.474H57.1687V11.3748C57.1687 10.8762 57.2337 10.444 57.369 10.0488C57.7256 8.85333 58.7223 8.11044 59.9675 8.11044C60.9693 8.11044 61.361 8.63085 61.361 9.97339V14.7926C61.361 15.9383 61.901 16.474 63.0681 16.474H64.5956L64.5905 9.43639C64.5905 6.64128 63.2022 5.16316 60.5751 5.16316V5.16189ZM50.4119 5.41378H48.8908L48.9012 13.9692V16.4779H50.5237L50.581 16.4804L51.3383 16.4779H52.0904V16.474H52.0956L52.102 7.09519C52.102 5.9636 51.5517 5.41505 50.4132 5.41505L50.4119 5.41378ZM30.4471 13.9679C28.8388 13.9679 27.7186 12.7123 27.7186 10.9171C27.7186 9.12313 28.8389 7.86877 30.4484 7.86877C32.0618 7.86877 33.1965 9.12313 33.1965 10.9171C33.1965 12.7404 32.0904 13.9679 30.4484 13.9679H30.4471ZM30.4471 5.18746C27.0406 5.18746 24.5684 7.5977 24.5684 10.9171C24.5684 14.2377 27.0407 16.6467 30.4484 16.6467C33.8613 16.6467 36.3464 14.2377 36.3464 10.9183C36.3464 7.5977 33.8613 5.18746 30.4484 5.18746" fill="#B9BEC7"/>
<path d="M99.2437 13.9679C97.6358 13.9679 96.514 12.7123 96.514 10.9171C96.514 9.1232 97.6358 7.86882 99.2437 7.86882C100.86 7.86882 101.993 9.1232 101.993 10.9171C101.993 12.7405 100.887 13.9679 99.2437 13.9679ZM99.2437 5.1875C95.8375 5.1875 93.3663 7.59774 93.3663 10.9171C93.3663 14.2377 95.8375 16.6467 99.2437 16.6467C102.658 16.6467 105.141 14.2377 105.141 10.9184C105.141 7.59774 102.656 5.1875 99.2437 5.1875Z" fill="#B9BEC7"/>
<path d="M71.3573 13.4806C69.6021 13.4806 68.9776 11.9769 68.9776 10.5665C68.9776 9.94516 69.1376 7.92106 71.1895 7.92106C72.2083 7.92106 73.5654 8.20747 73.5654 10.6701C73.5654 12.9935 72.3644 13.4806 71.3573 13.4806ZM75.2321 5.38423C74.6232 5.38423 74.1548 5.62333 73.9193 6.05935L73.8308 6.22813L73.6825 6.10027C73.1647 5.66041 72.2356 5.13745 70.7276 5.13745C67.7259 5.13745 65.7052 7.35334 65.7052 10.6484C65.7052 13.9422 67.7961 16.2437 70.7875 16.2437C71.8089 16.2437 72.6169 16.0085 73.257 15.5328L73.5042 15.35V15.6569C73.5042 17.135 72.5323 17.9507 70.7693 17.9507C69.9117 17.9507 69.1324 17.7461 68.6094 17.5595C67.9302 17.3574 67.5293 17.5249 67.2549 18.1963L66.9999 18.8151L66.6394 19.7204L66.8619 19.8368C67.9913 20.4249 69.4603 20.7765 70.7875 20.7765C73.5199 20.7765 76.7129 19.402 76.7129 15.5328L76.7246 5.38423H75.2321Z" fill="#B9BEC7"/>
<path d="M6.08703 13.8411L3.47433 13.8385V10.7698C3.47433 10.1126 3.73326 9.7724 4.30446 9.69316H6.08703C7.35825 9.69316 8.18056 10.4808 8.18186 11.7556C8.18056 13.0649 7.37907 13.8398 6.08703 13.8398V13.8411ZM3.47433 5.56058V4.75248C3.47433 4.0454 3.77881 3.70911 4.4463 3.66563H5.7839C6.93022 3.66563 7.61721 4.33948 7.61721 5.46853C7.61721 6.32777 7.14618 7.33151 5.82552 7.33151H3.47433V5.56058ZM9.42323 8.62422L8.95086 8.36337L9.36329 8.01686C9.84345 7.61153 10.6463 6.69986 10.6463 5.12713C10.6463 2.71816 8.7466 1.16333 5.80471 1.16333H2.06518C1.6444 1.1784 1.24568 1.35199 0.951607 1.64812C0.657533 1.94425 0.490663 2.34022 0.485596 2.75396V16.4227H5.87102C9.14078 16.4227 11.2513 14.6735 11.2513 11.9641C11.2513 10.5051 10.5695 9.25842 9.42323 8.62422Z" fill="#B9BEC7"/>
<path d="M119.681 5.19897C119.018 5.20137 118.364 5.35004 117.767 5.63398C117.172 5.91792 116.647 6.3299 116.235 6.83947L116.004 7.12845L115.821 6.80495C115.225 5.73984 114.203 5.19897 112.781 5.19897C111.288 5.19897 110.287 6.0173 109.823 6.50319L109.519 6.82669L109.401 6.4009C109.232 5.78715 108.677 5.45087 107.837 5.45087H106.487L106.474 16.4728H109.538V11.6075C109.538 11.1805 109.592 10.7598 109.7 10.3186C109.994 9.14235 110.797 7.87773 112.15 8.00432C112.982 8.0836 113.391 8.71652 113.391 9.93888V16.4728H116.477V11.6075C116.477 11.0743 116.528 10.6755 116.65 10.2765C116.897 9.15387 117.738 8.00304 119.042 8.00304C119.986 8.00304 120.335 8.52729 120.335 9.93888V14.8617C120.335 15.9741 120.84 16.4728 121.973 16.4728H123.415L123.417 9.4364C123.417 6.62466 122.158 5.19897 119.681 5.19897ZM91.792 12.6458C91.7823 12.6573 90.4648 14.0229 88.7276 14.0229C87.1453 14.0229 85.5475 13.069 85.5475 10.9401C85.5475 9.10136 86.7862 7.81636 88.5611 7.81636C89.1358 7.81636 89.7919 8.01839 89.8946 8.35979L89.9087 8.41732C89.9743 8.65237 90.1168 8.85955 90.3151 9.0068C90.5126 9.15413 90.7543 9.2332 91.0022 9.23178L92.6801 9.23435V7.79207C92.6801 5.88944 90.2177 5.19897 88.5611 5.19897C85.0166 5.19897 82.4456 7.62328 82.4456 10.9631C82.4456 14.3003 84.988 16.7221 88.496 16.7221C91.5379 16.7221 93.1927 14.7569 93.2087 14.7377L93.2972 14.6303L91.9673 12.4629L91.792 12.6458Z" fill="#B9BEC7"/>
</g>
</g>
<defs>
<clipPath id="clip0_28_8">
<rect width="123.958" height="21.25" fill="white"/>
</clipPath>
</defs>
</svg>
