<svg width="115" height="14" viewBox="0 0 115 14" fill="none" xmlns="http://www.w3.org/2000/svg">
<g clip-path="url(#clip0_28_63)">
<mask id="mask0_28_63" style="mask-type:luminance" maskUnits="userSpaceOnUse" x="0" y="0" width="115" height="14">
<path d="M0.5 0.0979004H114.5V13.9029H0.5V0.0979004Z" fill="white"/>
</mask>
<g mask="url(#mask0_28_63)">
<path d="M74.332 13.37H71.214V0.648963L81.24 0.655963C81.24 0.655963 83.076 0.587963 84.244 1.74196C84.244 1.74196 85.436 2.73696 85.436 5.16996V13.369H82.326V4.95796C82.326 4.95796 82.365 4.09996 82.072 3.79796C82.072 3.79796 81.814 3.47196 81.322 3.47196H74.324L74.331 13.366V13.371L74.332 13.37ZM87.602 13.369V0.656963H100.113V3.48496H90.701V5.64496H97.24V8.37596H90.7V10.545H100.172V13.373H87.595L87.602 13.369ZM65.782 13.369V0.656963H68.886V13.373H65.782V13.369ZM104.582 13.369V3.47996H101.651V0.653963H113.307V3.48096H107.688V13.369H104.582ZM55.529 13.369V3.47996H52.599V0.653963H64.254V3.48096H58.635V13.369H55.529ZM46.168 5.63696C46.926 5.63096 47.38 5.63696 47.563 5.52696C47.563 5.52696 47.882 5.34996 47.885 4.97196L47.886 4.13996C47.886 3.75996 47.563 3.58596 47.563 3.58596C47.321 3.45396 46.911 3.47896 45.938 3.47796H39.89V5.63696H46.307H46.168ZM47.84 13.369V9.02896C47.84 8.63896 47.514 8.47596 47.514 8.47596C47.367 8.38396 46.927 8.36796 46.279 8.36796H46.429H39.889V13.368H36.785V0.655963H46.475C48.149 0.661963 49.305 0.907963 50.1 1.68096C50.882 2.47696 50.986 3.51896 50.99 4.60396V5.50896C51 6.43096 50.516 7.27096 49.938 7.76096L50.055 7.81796C50.29 7.93196 50.419 8.09396 50.419 8.09396C50.859 8.65496 50.853 9.13796 50.852 9.73096V13.371H47.841L47.84 13.369ZM0.896043 0.652963V13.365H4.00004V8.36896H13.405V5.63796H4.00004V3.47796H14.932V0.649963H0.894043L0.896043 0.652963ZM112.259 11.12V11.704H112.802C112.949 11.704 113.092 11.664 113.114 11.445C113.145 11.155 112.935 11.12 112.802 11.12H112.259ZM112.04 10.928H112.797C113.06 10.928 113.314 10.978 113.336 11.36C113.345 11.58 113.279 11.659 113.113 11.784C113.288 11.896 113.292 11.922 113.319 12.216C113.336 12.439 113.305 12.475 113.399 12.622H113.141L113.105 12.408C113.069 12.207 113.167 11.896 112.816 11.896H112.258V12.622H112.04V10.928ZM112.61 10.461C111.862 10.461 111.252 11.071 111.257 11.824C111.258 12.093 111.338 12.3558 111.489 12.5791C111.639 12.8023 111.852 12.976 112.101 13.0781C112.35 13.1803 112.623 13.2063 112.887 13.1529C113.151 13.0995 113.393 12.969 113.582 12.7781C113.772 12.5871 113.9 12.3442 113.952 12.0801C114.003 11.816 113.975 11.5426 113.871 11.2944C113.767 11.0463 113.592 10.8345 113.368 10.686C113.143 10.5374 112.88 10.4588 112.611 10.46L112.61 10.461ZM112.615 13.356C111.765 13.356 111.078 12.67 111.078 11.82C111.078 11.618 111.117 11.4179 111.194 11.2312C111.271 11.0444 111.384 10.8748 111.527 10.7319C111.67 10.589 111.84 10.4757 112.026 10.3985C112.213 10.3213 112.413 10.2817 112.615 10.282C113.462 10.282 114.153 10.972 114.153 11.82C114.153 12.67 113.462 13.353 112.615 13.356ZM32.517 13.495C33.525 13.153 34.31 11.991 34.499 10.531V10.109H29.329V13.495H32.517ZM34.5 3.89996V3.51796C34.3 1.99496 33.458 0.793963 32.383 0.511963H29.33V3.89996H34.5ZM16.303 10.11V10.528C16.491 11.989 17.275 13.153 18.287 13.495H21.458V10.11H16.303ZM18.42 0.512963C17.347 0.795963 16.501 1.99696 16.304 3.52296V3.90196H21.459V0.514963H18.42V0.512963ZM34.504 5.31196H29.334V8.69996H34.504V5.31296V5.31196ZM22.87 13.497H27.928V10.111H22.87V13.497ZM27.927 0.511963H22.87V3.89896H27.928L27.927 0.511963ZM16.307 8.69596H21.463V5.30796H16.308V8.69596H16.307Z" fill="#B9BEC7"/>
</g>
</g>
<defs>
<clipPath id="clip0_28_63">
<rect width="115" height="14" fill="white"/>
</clipPath>
</defs>
</svg>
