<svg width="63" height="25" viewBox="0 0 63 25" fill="none" xmlns="http://www.w3.org/2000/svg">
<g clip-path="url(#clip0_28_21)">
<path d="M0 23.2593H12.2493V24.9939H0V23.2593Z" fill="#B9BEC7"/>
<path d="M0 19.9321H12.2493V21.6728H0V19.9321Z" fill="#B9BEC7"/>
<path d="M3.49451 16.6111H8.74865V18.3519H3.49451V16.6111Z" fill="#B9BEC7"/>
<path d="M3.49451 13.29H8.74865V15.0308H3.49451V13.29Z" fill="#B9BEC7"/>
<path d="M3.49451 9.96924H8.74865V11.71H3.49451V9.96924Z" fill="#B9BEC7"/>
<path d="M3.49451 6.64209H8.74865V8.38284H3.49451V6.64209Z" fill="#B9BEC7"/>
<path d="M12.2493 3.32104H0V5.06179H12.2493V3.32104Z" fill="#B9BEC7"/>
<path d="M12.2493 0H0V1.74075H12.2493V0Z" fill="#B9BEC7"/>
<path d="M13.9965 21.6728H32.8353C33.1536 21.1358 33.3907 20.5493 33.5343 19.9321H13.9965V21.6728Z" fill="#B9BEC7"/>
<path d="M31.369 13.29H17.4972V15.0308H32.8354C32.436 14.3641 31.943 13.7777 31.369 13.29Z" fill="#B9BEC7"/>
<path d="M17.4972 9.96924V11.71H31.369C31.9555 11.2223 32.4485 10.6359 32.8354 9.96924H17.4972Z" fill="#B9BEC7"/>
<path d="M32.8354 3.32104H13.9965V5.06179H33.5343C33.372 4.4445 33.1349 3.85813 32.8354 3.32104Z" fill="#B9BEC7"/>
<path d="M27.0446 0H13.9965V1.74075H31.5437C30.3705 0.666647 28.7793 0 27.0446 0Z" fill="#B9BEC7"/>
<path d="M22.7451 6.64209H17.4972V8.38284H22.7451V6.64209Z" fill="#B9BEC7"/>
<path d="M27.9993 8.38284H33.4906C33.6465 7.82731 33.7277 7.24087 33.7277 6.64209H27.9993V8.38284Z" fill="#B9BEC7"/>
<path d="M17.4972 16.6111H22.7451V18.3519H17.4972V16.6111Z" fill="#B9BEC7"/>
<path d="M27.9993 16.6111V18.3519H33.7277C33.7277 17.7531 33.6465 17.1667 33.4906 16.6111H27.9993Z" fill="#B9BEC7"/>
<path d="M13.9965 24.9816L27.0446 25.0001C28.7918 25.0001 30.3705 24.3334 31.5499 23.2593H13.9965V24.9816Z" fill="#B9BEC7"/>
<path d="M35.0007 23.2593H43.7493V24.9939H35.0007V23.2593Z" fill="#B9BEC7"/>
<path d="M35.0007 19.9321H43.7493V21.6728H35.0007V19.9321Z" fill="#B9BEC7"/>
<path d="M38.4951 16.6111H43.7493V18.3519H38.4951V16.6111Z" fill="#B9BEC7"/>
<path d="M38.4951 13.29H43.7493V15.0308H38.4951V13.29Z" fill="#B9BEC7"/>
<path d="M46.183 3.32104H35.0007V5.06179H46.7882L46.183 3.32104Z" fill="#B9BEC7"/>
<path d="M45.0223 0H35.0007V1.74075H45.6276L45.0223 0Z" fill="#B9BEC7"/>
<path d="M54.2451 23.2593H63V24.9939H54.2451V23.2593Z" fill="#B9BEC7"/>
<path d="M54.2451 19.9321H63V21.6728H54.2451V19.9321Z" fill="#B9BEC7"/>
<path d="M54.2451 16.6111H59.4993V18.3519H54.2451V16.6111Z" fill="#B9BEC7"/>
<path d="M54.2451 13.29H59.4993V15.0308H54.2451V13.29Z" fill="#B9BEC7"/>
<path d="M54.2451 11.71H59.4993V9.96924H54.2451H49.4902L48.9972 11.3767L48.5043 9.96924H43.7493H38.4951V11.71H43.7493V10.1112L44.3047 11.71H53.6898L54.2451 10.1112V11.71Z" fill="#B9BEC7"/>
<path d="M59.4994 6.64209H50.651L50.0457 8.38284H59.4994V6.64209Z" fill="#B9BEC7"/>
<path d="M52.9783 0L52.373 1.74075H62.9999V0H52.9783Z" fill="#B9BEC7"/>
<path d="M48.9971 24.9816L49.6024 23.2593H48.3918L48.9971 24.9816Z" fill="#B9BEC7"/>
<path d="M47.8366 21.6728H50.1579L50.7818 19.9321H47.2188L47.8366 21.6728Z" fill="#B9BEC7"/>
<path d="M46.6572 18.3519H51.3372L51.955 16.6111H46.0394L46.6572 18.3519Z" fill="#B9BEC7"/>
<path d="M45.484 15.0308H52.5166L53.1157 13.29H44.8787L45.484 15.0308Z" fill="#B9BEC7"/>
<path d="M38.4951 8.38284H47.9488L47.3436 6.64209H38.4951V8.38284Z" fill="#B9BEC7"/>
<path d="M51.2124 5.06179H63V3.32104H51.8115L51.2124 5.06179Z" fill="#B9BEC7"/>
</g>
<defs>
<clipPath id="clip0_28_21">
<rect width="63" height="25" fill="white"/>
</clipPath>
</defs>
</svg>
