<svg width="75" height="24" viewBox="0 0 75 24" fill="none" xmlns="http://www.w3.org/2000/svg">
<g clip-path="url(#clip0_28_60)">
<path d="M0.493164 16.49V0.936839H3.22508V16.49H0.493164ZM10.2196 5.2073C6.7164 5.2073 4.2922 7.89976 4.2922 10.9828C4.2922 14.4248 6.92943 16.7948 10.2462 16.7948C13.3943 16.7948 16.1262 14.4672 16.1262 10.9759C16.1262 8.03981 13.8628 5.20631 10.2186 5.20631L10.2196 5.2073ZM10.187 7.84256C12.0205 7.84256 13.3696 9.26967 13.3696 10.9926C13.3731 11.8272 13.0449 12.629 12.4574 13.2218C11.8698 13.8145 11.0709 14.1497 10.2363 14.1536C8.29243 14.1536 7.06849 12.6121 7.06849 10.9976C7.06849 9.22824 8.44924 7.84256 10.187 7.84256ZM22.9915 5.2073C19.4883 5.2073 17.0641 7.89976 17.0641 10.9828C17.0641 14.4248 19.7014 16.7948 23.0191 16.7948C26.1672 16.7948 28.8991 14.4672 28.8991 10.9759C28.8991 8.91955 28.0086 8.00727 28.0086 8.00727L28.766 7.74788V5.5298H24.8851C24.8851 5.5298 24.0438 5.2073 22.9915 5.2073ZM22.959 7.84256C24.7934 7.84256 26.1416 9.26967 26.1416 10.9926C26.145 11.8271 25.817 12.6287 25.2296 13.2214C24.6423 13.8141 23.8437 14.1494 23.0093 14.1536C21.0644 14.1536 19.8414 12.6121 19.8414 10.9976C19.8414 9.22824 21.2222 7.84256 22.959 7.84256ZM26.1228 17.2514C26.1263 18.0868 25.7984 18.8895 25.2111 19.4837C24.6238 20.0778 23.8249 20.4149 22.9895 20.4212C21.0456 20.4212 19.8168 18.8659 19.8168 17.2514H17.0454C17.0454 20.6914 19.6816 23.0624 22.9994 23.0624C26.1475 23.0624 28.8794 20.7427 28.8794 17.2514H26.1228ZM29.9929 16.49V5.53079H32.7248V16.492H29.9929V16.49ZM35.3788 16.49V7.98655H33.9132V5.53079H35.3788V2.16472H38.1107V5.5298H39.6157V7.98557H38.1107V16.491H35.3788V16.49ZM33.1627 2.41621C33.1627 2.89606 32.9721 3.35626 32.6328 3.69557C32.2935 4.03487 31.8333 4.22549 31.3534 4.22549C30.8736 4.22549 30.4134 4.03487 30.0741 3.69557C29.7348 3.35626 29.5441 2.89606 29.5441 2.41621C29.5441 1.93623 29.7348 1.47591 30.0742 1.13651C30.4136 0.797117 30.8739 0.606445 31.3539 0.606445C31.8339 0.606445 32.2942 0.797117 32.6336 1.13651C32.973 1.47591 33.1627 1.93623 33.1627 2.41621ZM45.7581 5.19941C42.2382 5.19941 39.9688 7.89483 39.9688 11.0824C39.9688 14.3765 42.2461 16.8017 45.8153 16.8017C49.1449 16.8017 50.7821 14.7226 50.7821 14.7226L48.9555 12.8941C48.9555 12.8941 47.5767 14.3814 45.8488 14.3814C44.4099 14.3814 43.2589 13.5776 42.8575 12.1041H51.3708V11.3516C51.3708 8.35048 49.6321 5.19941 45.7581 5.19941ZM45.6713 7.60586C46.9298 7.60586 48.2178 8.27848 48.5048 9.88706H42.7836C43.0104 8.75583 43.9986 7.60487 45.6713 7.60487V7.60586ZM58.2056 16.8026C54.6758 16.8026 52.2703 14.1151 52.2703 10.9443C52.2703 7.67391 54.9884 5.19744 58.1937 5.19744C61.2925 5.19744 62.8784 7.38494 62.8784 7.38494L60.973 9.28249C60.973 9.28249 59.8684 7.85538 58.1819 7.85538C56.311 7.85538 55.0318 9.28545 55.0318 10.9867C55.0318 12.7827 56.3928 14.1605 58.1602 14.1605C59.8753 14.1605 60.97 12.7363 60.97 12.7363L62.8952 14.6329C62.8952 14.6329 61.3241 16.8026 58.2056 16.8026ZM63.8893 16.4989V0.896403H66.6212V6.62947C66.6212 6.62947 67.6666 5.19744 69.9429 5.19744C72.804 5.19744 74.4619 7.32379 74.4619 10.0439V16.4989H71.73V10.4571C71.73 8.62959 70.5919 7.87215 69.3314 7.87215C67.8955 7.87215 66.6212 8.68876 66.6212 10.5981V16.4989H63.8893Z" fill="#B9BEC7"/>
</g>
<defs>
<clipPath id="clip0_28_60">
<rect width="74.955" height="23.67" fill="white"/>
</clipPath>
</defs>
</svg>
