<svg width="78" height="22" viewBox="0 0 78 22" fill="none" xmlns="http://www.w3.org/2000/svg">
<g clip-path="url(#clip0_28_85)">
<path d="M11.088 20.064C9.93 20.267 8.751 20.328 7.532 20.49L3.812 9.59797V20.958C2.654 21.08 1.598 21.242 0.5 21.405V0.594971H3.59L7.816 12.402V0.594971H11.088V20.064ZM17.49 8.21597C18.75 8.21597 20.68 8.15497 21.838 8.15497V11.406C20.395 11.406 18.708 11.406 17.489 11.467V16.304C19.399 16.182 21.31 16.019 23.241 15.959V19.088L14.238 19.799V0.594971H23.241V3.84697H17.489L17.49 8.21597ZM35.332 3.84597H31.96V18.804C30.862 18.804 29.765 18.804 28.708 18.844V3.84697H25.335V0.594971H35.333V3.84697L35.332 3.84597ZM40.616 7.99197H45.066V11.244H40.616V18.621H37.425V0.594971H46.509V3.84697H40.616V7.99197ZM51.793 15.776C53.643 15.816 55.512 15.959 57.321 16.06V19.271C54.414 19.088 51.508 18.905 48.541 18.844V0.594971H51.793V15.775V15.776ZM60.063 19.495C61.1 19.555 62.198 19.617 63.254 19.738V0.594971H60.064L60.063 19.495ZM77.5 0.594971L73.375 10.492L77.5 21.405C76.28 21.242 75.062 21.019 73.842 20.815L71.505 14.8L69.128 20.328C67.948 20.125 66.811 20.064 65.632 19.901L69.819 10.37L66.039 0.594971H69.534L71.668 6.06197L73.944 0.594971H77.5Z" fill="#B9BEC7"/>
</g>
<defs>
<clipPath id="clip0_28_85">
<rect width="78" height="22" fill="white"/>
</clipPath>
</defs>
</svg>
